PathFileType	4	(X/Y/Z)	3_2_93_p1_0-380.trc
DataRate	CameraRate	NumFrames	NumMarkers	Units	OrigDataRate	OrigDataStartFrame	OrigNumFrames
57.0	57.0	5	27	m	57.0	0	381
Frame#	Time	RHip			RKnee			RAnkle			RBigToe			RSmallToe			RHeel			LHip			LKnee			LAnkle			LBigToe			LSmallToe			LHeel			Neck			Head			Nose			RShoulder			RElbow			RWrist			RThumb			RIndex			RPinky			LShoulder			LElbow			LWrist			LThumb			LIndex			LPinky			
		X1	Y1	Z1	X2	Y2	Z2	X3	Y3	Z3	X4	Y4	Z4	X5	Y5	Z5	X6	Y6	Z6	X7	Y7	Z7	X8	Y8	Z8	X9	Y9	Z9	X10	Y10	Z10	X11	Y11	Z11	X12	Y12	Z12	X13	Y13	Z13	X14	Y14	Z14	X15	Y15	Z15	X16	Y16	Z16	X17	Y17	Z17	X18	Y18	Z18	X19	Y19	Z19	X20	Y20	Z20	X21	Y21	Z21	X22	Y22	Z22	X23	Y23	Z23	X24	Y24	Z24	X25	Y25	Z25	X26	Y26	Z26	X27	Y27	Z27	
0	0.0	0.20756355393092227	0.3999797347368022	0.9785004036485554	0.1814577163064028	0.5071013332431888	1.3787631055751581	0.15656825010808204	0.5268805681522685	1.7880908446978587	0.17791297412429616	0.2804937414576389	1.812137208602011	0.23692788723242178	0.37654453822217654	1.8462156324783303	0.1454041440183805	0.5257764346727911	1.8258558736853554	-0.0029321268358958367	0.36978627426609234	0.9662905256210411	-0.013397244052434252	0.3978222643352789	1.3399932423731977	-0.0074003550148670615	0.45231207336136653	1.745063780260856	-0.009603086729272016	0.29089156704993857	1.8321103921340602	-0.059384482866660954	0.298040937225517	1.7946662003999752	-0.0011754006069809668	0.5323048022786309	1.8282634101063044	0.10799252066735811	0.3750482055990234	0.3675284362357739	0.15187951837364236	0.27907902372055177	0.11737120560119883	0.1541383001520415	0.2449106195894426	0.2621642326404085	0.26766925130315605	0.4306279300131131	0.4680024904375057	0.30708877292713477	0.3005665866270506	0.7144350970099819	0.11250303765314028	0.1567696289495086	0.7983844453839802	0.004688104869452414	0.13673793291649558	0.7512232970453355	-0.0005028048352513665	0.14990906426962045	0.8191286724080747	0.010966873548551278	0.16478810148138373	0.8701588221345842	-0.037534095266061294	0.33167771467574686	0.44112108806590244	-0.04910867709647638	0.25409998880662515	0.7190754287933402	0.07996101344474395	0.13058694996134163	0.9116378996188118	0.17453934021598835	0.10750574691771794	0.9709760550603396	0.17201255154767323	0.10478876429528526	0.9934004662258566	0.10582332967818903	0.1308373881643772	1.0244643325524143
1	0.017543859649122806	0.2029072940073944	0.3975221097697689	0.9826699223951711	0.1854739528772596	0.4897335279872669	1.371385790200301	0.156045078327864	0.5236519434220598	1.7862939479471016	0.1823608995457608	0.2840069823276914	1.8049766239950646	0.23632650470270047	0.37854532021104936	1.8423675164209548	0.14390341273170984	0.5245178226540361	1.8162557666269101	-0.0094729250715404	0.35495437460315704	0.9663299914024994	-0.013389613252935332	0.39777098306797604	1.339949364473134	-0.009112538142295649	0.45258780383192665	1.7542318845318912	0.0015893234187022572	0.2632969490196313	1.819101404348681	-0.05502354714195714	0.28509155438634604	1.7930058484207778	0.00039429403545205324	0.5204819064900102	1.8279370491634896	0.10797590525219262	0.3752591578512033	0.36756387619086756	0.15570159168509645	0.28102482492428477	0.11750452819544611	0.14966592722730726	0.2562145168585015	0.2628852096011389	0.26762212338353214	0.43128708652256686	0.4683172016725481	0.3065947288506482	0.3006954201112261	0.7176668516890682	0.11193699832786075	0.15668562652584322	0.8019389698650727	0.009100463235350688	0.13821779148309182	0.7633750832095058	0.0032768734515384863	0.15224825192468008	0.8202358538266018	0.01026654625510027	0.1650241415026823	0.8622244860654357	-0.037597789426500834	0.33195806444062287	0.4412650729228198	-0.05194410031659894	0.24067854552579585	0.7188725707367224	0.08576651386990067	0.14372967940807985	0.9150671997710871	0.17201901694082203	0.1289836141751924	0.9783000005737482	0.16746778708750776	0.11546403276540375	0.9971007603833959	0.10749660343896578	0.14321835411977185	1.0243913194231107
2	0.03508771929824561	0.20272707126522993	0.39752297547902565	0.9825008979869577	0.1855410303898693	0.48954453808545334	1.371278498914925	0.15613015373133443	0.5233818646997174	1.7861914708659206	0.18275503705316376	0.2827639498026426	1.8082484702432822	0.23676227735554506	0.3769429884499123	1.8463455136591187	0.14438068818816988	0.52301653582037	1.8195952340399824	-0.009517894312336884	0.3548206107823968	0.9663224355766605	-0.013369340892320619	0.3977687317731388	1.3399881363028836	-0.007895407679117103	0.4527726159707669	1.7498872448158227	-0.004653298816912229	0.27734879407334684	1.8280022220100227	-0.05507947637635813	0.2852071067287892	1.7929972983330007	0.0005642858491039505	0.5205825752643465	1.8276628163401019	0.11001350280464346	0.38692693193401556	0.3686388360884967	0.15572041730868416	0.28066706891466975	0.120647959637907	0.14967570297509095	0.25625422458669495	0.26289100459140685	0.2676492380149907	0.43176507166596173	0.46843033292497854	0.30820809957317086	0.2758268384808206	0.7124328997164604	0.11144520891146441	0.1560599120338527	0.8056973709757452	0.004339258806501179	0.13679120693401153	0.7658877498096417	0.0026073393340920147	0.15201282479391645	0.8244836558510223	0.01063775475604274	0.16461931641502223	0.8741714590033373	-0.03765645705831483	0.33196539586508006	0.4413050537214487	-0.05560227849969362	0.2513903529322479	0.7215459315061757	0.0857088110057654	0.1437871240299282	0.9153630843974596	0.16780062084906683	0.1402122896180373	0.9823990431606485	0.16362201328737813	0.12717849680091328	0.9982466472628081	0.1079686274559839	0.14296401800229264	1.0282542594537314
3	0.05263157894736842	0.20272314206738	0.3975776063273651	0.9832493156184593	0.18577076175730467	0.48812867214673417	1.3751418128835515	0.1564110018235232	0.5236976222571582	1.7866620146881087	0.1814304030956532	0.2826081551356136	1.8129469888195953	0.23651208663809908	0.3767747031950207	1.8463158175388237	0.14369737192638235	0.521449239369709	1.8145041693055077	-0.009976807167602766	0.35386851079481624	0.9736150574358542	-0.013325482980091487	0.3977065408672376	1.3400361169787953	-0.009329752778446533	0.4526141215274009	1.754483922971595	0.0015565329157161615	0.2633723896439483	1.8193746935616892	-0.05523376146413575	0.284941633117424	1.7932351737097962	0.0004626603727940343	0.5188168271902055	1.83208239751525	0.11010726469895883	0.3872464239256788	0.3686773740492622	0.15187295134531553	0.27920263042474236	0.1174515731370173	0.14970710858127392	0.2562647727680121	0.2628742363274742	0.26806011791261025	0.43329480560492056	0.47245201051903535	0.3113644528829027	0.286868740946003	0.7188639708595208	0.11181643942351731	0.15767411236276788	0.8099779154934353	0.010722020457294817	0.15172137330940602	0.7745517011471788	0.002846318713198966	0.1522535865514479	0.8241531358834152	0.011085427778059728	0.1654254627301322	0.870156221614326	-0.04337312952835184	0.3442687034153094	0.44297875451577784	-0.05780976571231771	0.2374055913408603	0.7225446365257296	0.07999924785514391	0.15603869270169404	0.9229962224948461	0.16329462013895923	0.1539376817945446	0.9910105113192169	0.1624963145892447	0.12780589016134383	1.0020518414989459	0.10223727065025906	0.15445645512476106	1.0364507032918573
4	0.07017543859649122	0.2020641516639951	0.39722837576665454	0.9878669538508379	0.18488911354152254	0.48593018168641205	1.3705125753078615	0.16088468704728387	0.5254898166444965	1.7917492369021106	0.1790096138057138	0.28073084612608196	1.807104844691443	0.2374075173644187	0.37673350039939585	1.8412987597430523	0.1452593275825995	0.5228725791675776	1.8235243433458748	-0.013725873341154196	0.35210998870759935	0.9732899861295261	-0.013998157222245247	0.39600951973664306	1.33489297038394	-0.008794520277651522	0.4525906831109786	1.750054556107923	-0.003446985358842266	0.27684808508543085	1.823917190886013	-0.054072713662853066	0.2848069759651836	1.7888525063765686	0.00010606944735171214	0.5188529509713192	1.8325055308484346	0.11017466741063958	0.3872494826260728	0.3686906376943872	0.1518800204737682	0.2792359036751703	0.11745937193771454	0.15422275995788898	0.24498748247974614	0.26209837578345213	0.2630753828151522	0.44761557679991565	0.47431376100496503	0.31432936380608595	0.29871542940373086	0.7213415347564323	0.11396033036269873	0.1684732785877102	0.812872645309663	0.010909482669054369	0.14995792481749104	0.7793724918585018	0.004789968976675082	0.16232496073779096	0.8270962432409893	0.01135698665334773	0.16555558660635258	0.8710421391901394	-0.03767773051197107	0.33180351732470287	0.441414390569544	-0.052066015191058114	0.251193124329546	0.721870281965565	0.08203452432401273	0.16629705401365066	0.9298197555967891	0.15654886369432292	0.16573839333879697	0.9984023324691029	0.15213599205347975	0.1407928513641965	1.0126213838029465	0.10213902346156618	0.15401675887454253	1.0398642807778007
